<svg width="24" height="24" viewBox="0 0 24 24" fill="none" xmlns="http://www.w3.org/2000/svg">
<path d="M4.92913 19.0712C6.82413 20.9662 9.33413 22.0092 12.0001 22.0092C14.6661 22.0092 17.1771 20.9662 19.0711 19.0712C22.9701 15.1722 22.9701 8.82823 19.0711 4.92823C17.1771 3.03423 14.6651 1.99023 12.0001 1.99023C9.33513 1.99023 6.82313 3.03423 4.92913 4.92923C1.03013 8.82723 1.03013 15.1722 4.92913 19.0712ZM12.3091 4.00623C13.9793 4.06635 15.5874 4.65376 16.9031 5.68423L12.0001 10.5862L10.5401 9.12624C11.7011 7.64723 12.3321 5.81823 12.3091 4.00623ZM9.11013 7.69623L7.09813 5.68423C8.0427 4.94384 9.14301 4.42754 10.3161 4.17423C10.3011 5.41023 9.87113 6.65123 9.11013 7.69623ZM7.68613 9.10023C6.66747 9.79617 5.4608 10.1649 4.22713 10.1572C4.48697 9.0447 4.98434 8.00153 5.68513 7.09923L7.68613 9.10023ZM4.01113 12.1462C4.08813 12.1482 4.16513 12.1602 4.24213 12.1602C6.00182 12.1658 7.71488 11.5947 9.11913 10.5342L10.5861 12.0002L5.68513 16.9012C4.6275 15.539 4.04012 13.8706 4.01113 12.1462ZM16.3051 14.8912C17.3471 14.1332 18.5851 13.7032 19.8131 13.6852C19.563 14.8567 19.0512 15.9564 18.3161 16.9022L16.3051 14.8912ZM16.9021 18.3162C16.0004 19.0211 14.9569 19.5226 13.8431 19.7862C13.8318 18.548 14.2008 17.3361 14.9001 16.3142L16.9021 18.3162ZM11.8581 20.0022C10.1297 19.9747 8.45768 19.3826 7.09713 18.3162L12.0001 13.4142L13.4631 14.8772C12.3601 16.3212 11.8041 18.1432 11.8581 20.0022ZM19.9821 11.6922C18.1751 11.6742 16.3491 12.3022 14.8741 13.4602L13.4141 12.0002L18.3151 7.09923C19.3381 8.41788 19.9212 10.0244 19.9821 11.6922Z" fill="#252F66"/>
</svg>
