<?xml version="1.0"?>
<svg xmlns="http://www.w3.org/2000/svg" viewBox="0 0 64 64" width="512" height="512"><g id="Chemistry"><path d="M21.69,57.8,16,44.79V38a3,3,0,0,0,0-6H8a3,3,0,0,0,0,6v6.79L2.31,57.8A3,3,0,0,0,5.06,62H18.94a3,3,0,0,0,2.75-4.2ZM7,35a1,1,0,0,1,1-1h8a1,1,0,0,1,0,2H8A1,1,0,0,1,7,35ZM19.78,59.55a1,1,0,0,1-.84.45H5.06a1,1,0,0,1-.84-.45.979.979,0,0,1-.08-.95L9.92,45.4A1.1,1.1,0,0,0,10,45V38h4v7a1.1,1.1,0,0,0,.08.4l5.78,13.2A.979.979,0,0,1,19.78,59.55Z"/><path d="M44,51.13V46h2V44H36v2h2v5.13c-1.81.5-3,2.36-3,4.87a5.845,5.845,0,0,0,.52,2.41.882.882,0,0,0,.09.2,5.976,5.976,0,0,0,10.78-.01.663.663,0,0,0,.09-.19A5.845,5.845,0,0,0,47,56C47,53.49,45.81,51.63,44,51.13Zm.64,6.51c-.01.01-.01.02-.02.03a3.977,3.977,0,0,1-7.24,0c-.01-.01-.01-.02-.02-.03A4.015,4.015,0,0,1,37,56c0-1.11.42-3,2-3a1,1,0,0,0,1-1V46h2v6a1,1,0,0,0,1,1c1.58,0,2,1.89,2,3A4.015,4.015,0,0,1,44.64,57.64Z"/><path d="M31,51.13V46h2V44H23v2h2v5.13c-1.81.5-3,2.36-3,4.87a5.845,5.845,0,0,0,.52,2.41.882.882,0,0,0,.09.2,5.976,5.976,0,0,0,10.78-.01.663.663,0,0,0,.09-.19A5.845,5.845,0,0,0,34,56C34,53.49,32.81,51.63,31,51.13Zm.64,6.51c-.01.01-.01.02-.02.03a3.977,3.977,0,0,1-7.24,0c-.01-.01-.01-.02-.02-.03A4.015,4.015,0,0,1,24,56c0-1.11.42-3,2-3a1,1,0,0,0,1-1V46h2v6a1,1,0,0,0,1,1c1.58,0,2,1.89,2,3A4.015,4.015,0,0,1,31.64,57.64Z"/><path d="M59,20H49a3.009,3.009,0,0,0-3,3v2a3.009,3.009,0,0,0,3,3V57a5,5,0,0,0,10,0V28a3.009,3.009,0,0,0,3-3V23A3.009,3.009,0,0,0,59,20ZM57,57a3,3,0,0,1-6,0V28h6Zm3-32a1,1,0,0,1-1,1H49a1,1,0,0,1-1-1V23a1,1,0,0,1,1-1H59a1,1,0,0,1,1,1Z"/><path d="M42,42V38a1,1,0,0,0-1-1H28a1,1,0,0,0-1,1v4h2V39H40v3Z"/><path d="M13,26H30v9h2V25a1,1,0,0,0-1-1H12a1,1,0,0,0-1,1v5h2Z"/><path d="M40,4H53V18h2V3a1,1,0,0,0-1-1H39a1,1,0,0,0-1,1V35h2Z"/><path d="M6,14a4,4,0,1,0-4-4A4,4,0,0,0,6,14ZM6,8a2,2,0,1,1-2,2A2,2,0,0,1,6,8Z"/><path d="M14,20a3,3,0,1,0-3-3A3,3,0,0,0,14,20Zm0-4a1,1,0,1,1-1,1A1,1,0,0,1,14,16Z"/><path d="M17,10a4,4,0,1,0-4-4A4,4,0,0,0,17,10Zm0-6a2,2,0,1,1-2,2A2,2,0,0,1,17,4Z"/><path d="M30,19a3,3,0,1,0,3-3A3,3,0,0,0,30,19Zm4,0a1,1,0,1,1-1-1A1,1,0,0,1,34,19Z"/><path d="M31,8a3,3,0,1,0-3-3A3,3,0,0,0,31,8Zm0-4a1,1,0,1,1-1,1A1,1,0,0,1,31,4Z"/><path d="M59,12a3,3,0,1,0,3,3A3,3,0,0,0,59,12Zm0,4a1,1,0,1,1,1-1A1,1,0,0,1,59,16Z"/><path d="M59,8a3,3,0,1,0-3-3A3,3,0,0,0,59,8Zm0-4a1,1,0,1,1-1,1A1,1,0,0,1,59,4Z"/><path d="M26,17a4,4,0,1,0-4-4A4,4,0,0,0,26,17Zm0-6a2,2,0,1,1-2,2A2,2,0,0,1,26,11Z"/><path d="M43,11a4,4,0,1,0,4-4A4,4,0,0,0,43,11Zm6,0a2,2,0,1,1-2-2A2,2,0,0,1,49,11Z"/></g></svg>
