<svg width="30" height="21" viewBox="0 0 30 21" fill="none" xmlns="http://www.w3.org/2000/svg">
<path d="M7.49998 13.3112V10.2688V13.3112ZM7.49998 13.3112C7.44227 13.3311 7.38534 13.3512 7.32911 13.3717L7.49998 13.8416H7.99998V13.6745C8.25291 13.5974 8.52334 13.5259 8.81811 13.4609C10.4437 13.0981 12.6122 12.875 15 12.875C17.3878 12.875 19.5553 13.0981 21.1819 13.4609L7.49998 13.3112ZM28.6048 8.1875L27.869 8.56227L27.8681 8.5627L24.1472 10.4668L23.875 10.6061V10.9119V15.6827C23.8696 15.9393 23.771 16.1851 23.5976 16.3743C23.4437 16.5403 23.2528 16.6471 22.9696 16.7979C22.4729 17.0577 21.8667 17.2512 21.0743 17.4258L21.0729 17.4261C19.4912 17.7791 17.3605 18 15 18C12.6394 18 10.5097 17.7791 8.92696 17.4261L8.92579 17.4258C8.13408 17.2512 7.52696 17.0577 7.03032 16.7978C6.74654 16.6467 6.55608 16.5401 6.40334 16.3743L6.40262 16.3736C6.25148 16.2102 6.12498 15.9529 6.12498 15.6875V10.9119V10.6071L5.85408 10.4675L3.97908 9.50089L3.24998 9.12504V9.94531V16.8884V17.176L3.49849 17.3206C3.91581 17.5634 4.18748 17.998 4.18748 18.5C4.18748 18.8647 4.04262 19.2144 3.78475 19.4723C3.52689 19.7301 3.17715 19.875 2.81248 19.875C2.44781 19.875 2.09807 19.7301 1.84021 19.4723C1.58235 19.2144 1.43748 18.8647 1.43748 18.5C1.43748 17.9972 1.70903 17.5635 2.12647 17.3206L2.37498 17.176V16.8884V8.97875V8.66973L2.09859 8.53154L1.40254 8.18351L2.13086 7.81278L2.13086 7.8128L2.1342 7.81106L14.7905 1.24856L14.7905 1.24859L14.7955 1.24592L15 1.13691L15.2045 1.24592L15.2045 1.24594L15.2095 1.24856L27.8658 7.81108L27.869 7.81273L28.6048 8.1875ZM15.2304 2.23595L15 2.11629L14.7695 2.23595L4.16361 7.74377L3.30007 8.19222L4.16744 8.6332L5.83807 9.48258L6.16204 9.64729L6.41869 9.38996C6.59399 9.21419 6.79682 9.06823 7.01918 8.95785L7.01924 8.95799L7.03007 8.95228C7.52212 8.69282 8.13145 8.4992 8.92568 8.32423L8.9272 8.32389C10.506 7.97091 12.6282 7.75 15 7.75C17.3718 7.75 19.4949 7.97092 21.0727 8.32388L21.0742 8.3242C21.8677 8.49922 22.4779 8.69285 22.9699 8.95228L22.9698 8.95241L22.9808 8.95785C23.2031 9.06823 23.406 9.21419 23.5813 9.38996L23.8379 9.64729L24.1619 9.48258L25.8325 8.6332L26.6999 8.19221L25.8364 7.74377L15.2304 2.23595ZM22.5928 9.71057L22.5929 9.71049L22.5845 9.70613C22.2236 9.51838 21.6006 9.32358 20.8795 9.16468C19.4098 8.83581 17.313 8.625 15 8.625C12.6871 8.625 10.5912 8.8358 9.12036 9.16564C8.40003 9.32438 7.77488 9.51931 7.41381 9.70886L7.41379 9.70881L7.40711 9.71245C7.32082 9.75944 7.25766 9.80778 7.20557 9.85773C7.19428 9.86856 7.18492 9.87811 7.1783 9.88496L7.17636 9.88698L6.99998 10.0237V10.2688V13.8416V14.5554L7.67085 14.3115C8.04256 14.1763 8.44987 14.0541 8.9257 13.9492L8.92702 13.9489C10.5088 13.5959 12.6394 13.375 15 13.375C17.3605 13.375 19.4903 13.5959 21.073 13.9489L21.0743 13.9492C21.5501 14.0541 21.9574 14.1763 22.3291 14.3115L23 14.5554V13.8416V10.2678V10.0265L22.8276 9.8895L22.8238 9.88554C22.8169 9.87831 22.8074 9.8685 22.7959 9.85741C22.7433 9.80671 22.6795 9.75778 22.5928 9.71057ZM7.16645 9.89729C7.16577 9.89799 7.16587 9.89787 7.16665 9.89708L7.16645 9.89729ZM22.8367 9.89908L22.8366 9.899C22.8377 9.90014 22.8378 9.90027 22.8367 9.89908ZM22.2592 16.1462L23.318 15.6871L22.2589 15.2286C21.8142 15.0361 21.3513 14.8889 20.8771 14.7891C19.4039 14.4606 17.2978 14.25 15 14.25C12.7019 14.25 10.5958 14.4607 9.12283 14.7882C8.64851 14.8883 8.18548 15.0359 7.74074 15.2288L6.68197 15.6879L7.74105 16.1464C8.18571 16.3388 8.64861 16.4861 9.12275 16.5858C10.596 16.9144 12.7021 17.125 15 17.125C17.2977 17.125 19.4039 16.9153 20.8773 16.5868C21.3516 16.4867 21.8145 16.3391 22.2592 16.1462Z" fill="#E0E0E0" stroke="#E0E0E0"/>
</svg>
