<svg width="64" height="64" viewBox="0 0 64 64" fill="none" xmlns="http://www.w3.org/2000/svg">
<path d="M31.5125 13.1776C30.8751 9.42762 27.8376 5.67762 23.1125 2.94024C15.1625 -1.40975 8.93738 0.0152452 5.89988 1.25262C2.30013 2.79025 0.875 4.89025 0.687625 5.11525L0 6.01512L0.575 6.99012C0.650125 7.06524 1.7 9.16524 3.9125 11.6025C10.3249 18.7651 16.775 21.6149 26.5624 21.6525C26.4125 21.3526 26.2622 21.0526 26.0749 20.7901C23.4499 16.5526 19.1375 13.0651 13.9249 10.9651L15.3499 7.47762C21.275 9.87762 26.225 13.89 29.2249 18.7651C29.4499 19.14 29.6749 19.515 29.8999 19.8901C31.3626 17.7902 31.8874 15.5027 31.5125 13.1776Z" fill="#219653"/>
<path d="M63.4373 5.1151C59.25 0.0894723 50.4412 -2.29078 40.8498 2.9776C36.1624 5.67747 33.1249 9.42747 32.4874 13.1775C32.1125 15.5027 32.6373 17.7901 34.0999 19.8901C34.3249 19.515 34.5499 19.1401 34.7749 18.7651C37.7749 13.89 42.7249 9.8776 48.6499 7.4776L50.0749 10.9651C44.8624 13.0651 40.55 16.5526 37.9625 20.7526C37.7749 21.0527 37.5874 21.3527 37.4375 21.6526C47.225 21.6151 53.6752 18.7652 60.0874 11.6026C62.3 9.16522 63.4749 7.06522 63.5499 6.99022L63.9999 6.01522L63.4373 5.1151Z" fill="#219653"/>
<path d="M64 64H0V62C0 53.0041 9.11863 46.6091 17.5291 49.6294C20.5523 44.5629 26.0509 41.375 32 41.375C37.9491 41.375 43.4477 44.5629 46.4709 49.6294C54.878 46.6103 64 53.0011 64 62V64Z" fill="#219653"/>
<path d="M37.4375 21.6525C35.15 25.59 33.9876 30.4276 33.875 36.0526V37.59C33.2376 37.5151 32.6374 37.4776 32 37.4776C31.3626 37.4776 30.7624 37.5151 30.125 37.59V36.0526C30.0124 30.3901 28.8499 25.5526 26.5625 21.6525C26.5625 21.6525 29.6751 20.265 29.9 19.8901C30.7249 21.3526 31.4374 22.8901 32 24.5401C32.5626 22.8901 33.2751 21.3151 34.1 19.8901C34.325 20.265 37.4375 21.6525 37.4375 21.6525V21.6525Z" fill="#219653"/>
</svg>
