<svg width="64" height="64" viewBox="0 0 64 64" fill="none" xmlns="http://www.w3.org/2000/svg">
<path d="M7.55078 49.1401V56.4489H14.8595C23.277 56.4489 30.1253 49.6008 30.1253 41.1833V33.8745H22.8165C14.3989 33.8745 7.55078 40.7226 7.55078 49.1401V49.1401Z" fill="#2F80ED"/>
<path d="M53.6221 63.9998H63.9998V53.6221C63.9998 42.7333 55.141 33.8745 44.2521 33.8745H33.8745V44.2521C33.8745 55.141 42.7333 63.9998 53.6221 63.9998ZM43.0108 42.423H53.3418V46.1725H43.0108V42.423ZM43.0108 50.8819H53.3418V54.6314H43.0108V50.8819Z" fill="#2F80ED"/>
<path d="M19.7476 30.1252H30.1252V19.7476C30.1252 8.85875 21.2665 0 10.3776 0H0V10.3776C0 21.2665 8.85875 30.1252 19.7476 30.1252ZM10.658 9.22688H20.989V12.9764H10.658V9.22688ZM10.658 17.6857H20.989V21.4352H10.658V17.6857Z" fill="#2F80ED"/>
<path d="M56.449 14.8595V7.55078H49.1403C40.7228 7.55078 33.8745 14.3989 33.8745 22.8164V30.1252H41.1833C49.6009 30.1252 56.449 23.277 56.449 14.8595V14.8595Z" fill="#2F80ED"/>
</svg>
