<svg width="64" height="64" viewBox="0 0 64 64" fill="none" xmlns="http://www.w3.org/2000/svg">
<path d="M2.99981 61.4828H31.9653C32.5367 61.4828 32.9998 61.0197 32.9998 60.4483V53.2069H6.10326V51.138H32.9998V41.2886C30.3797 39.1299 28.8619 35.9121 28.8619 32.5173V23.2069C28.8619 20.3504 26.546 18.0345 23.6895 18.0345C20.8329 18.0345 18.5171 20.3504 18.5171 23.2069V27.4483C21.119 27.9793 22.8958 30.3942 22.6287 33.0361C22.362 35.6777 20.1379 37.6889 17.4826 37.6889C14.8273 37.6889 12.6031 35.6777 12.3364 33.0361C12.0693 30.3942 13.8461 27.9793 16.4481 27.4483V23.2069C16.4481 19.2076 19.6897 15.9656 23.6895 15.9656C27.6892 15.9656 30.9308 19.2076 30.9308 23.2069V32.5173C30.9304 34.6432 31.6606 36.7049 32.9998 38.356V4.58624C32.9998 4.01485 32.5367 3.55176 31.9653 3.55176H2.99981C2.42842 3.55176 1.96533 4.01485 1.96533 4.58624V9.75865H28.8619V11.8276H1.96533V60.4483C1.96533 61.0197 2.42842 61.4828 2.99981 61.4828ZM16.4481 56.3104H18.5171V58.3793H16.4481V56.3104ZM23.6895 42.8621H27.8274V44.9311H23.6895V42.8621ZM19.5515 42.8621H21.6205V44.9311H19.5515V42.8621ZM19.5515 47H27.8274V49.069H19.5515V47ZM9.20671 7.68969H7.13774V5.62072H9.20671V7.68969ZM15.4136 7.68969H13.3446V5.62072H15.4136V7.68969ZM4.0343 14.9311C4.0343 14.3597 4.49739 13.8966 5.06878 13.8966H9.20671V15.9656H6.10326V19.069H4.0343V14.9311Z" fill="#EB5757"/>
<path d="M20.5858 32.517C20.5858 34.2308 19.1961 35.6205 17.4824 35.6205C15.7686 35.6205 14.3789 34.2308 14.3789 32.517C14.3789 30.8033 15.7686 29.4136 17.4824 29.4136C19.1961 29.4136 20.5858 30.8033 20.5858 32.517Z" fill="#EB5757"/>
<path d="M60.931 3.55206H57.8276V2.51758H54.7241C54.1527 2.51758 53.6897 2.98067 53.6897 3.55206V5.62103C53.6897 6.19242 54.1527 6.65551 54.7241 6.65551H57.8276V5.62103H59.8966V20.1038C59.8966 25.2459 55.7283 29.4141 50.5862 29.4141C45.4441 29.4141 41.2759 25.2459 41.2759 20.1038V5.62103H43.3448V6.65551H46.4483C47.0197 6.65551 47.4828 6.19242 47.4828 5.62103V3.55206C47.4828 2.98067 47.0197 2.51758 46.4483 2.51758H43.3448V3.55206H40.2414C39.67 3.55206 39.2069 4.01515 39.2069 4.58654V20.1038C39.2146 25.9834 43.6968 30.8911 49.5517 31.4306V32.5176C49.5558 36.4656 47.0665 39.9857 43.3428 41.2986C39.6191 42.6111 35.4731 41.4299 33 38.3523V41.3006C36.3988 44.1042 41.1106 44.6942 45.0954 42.8143C49.081 40.9349 51.6227 36.9238 51.6207 32.5176V31.4306C57.4756 30.8911 61.9578 25.9834 61.9655 20.1038V4.58654C61.9655 4.01515 61.5024 3.55206 60.931 3.55206Z" fill="#EB5757"/>
</svg>
