<svg width="48" height="48" viewBox="0 0 48 48" fill="none" xmlns="http://www.w3.org/2000/svg">
<rect width="48" height="48" rx="24" fill="white"/>
<path d="M30.6816 11.0361H17.6816C14.0918 11.0361 11.1816 13.9463 11.1816 17.5361V30.5361C11.1816 34.126 14.0918 37.0361 17.6816 37.0361H30.6816C34.2715 37.0361 37.1816 34.126 37.1816 30.5361V17.5361C37.1816 13.9463 34.2715 11.0361 30.6816 11.0361Z" stroke="#252F66" stroke-width="2" stroke-linecap="round" stroke-linejoin="round"/>
<path d="M29.1276 23.3027C29.2818 24.343 29.1041 25.4055 28.6198 26.339C28.1354 27.2725 27.369 28.0295 26.4296 28.5023C25.4902 28.9751 24.4256 29.1397 23.3873 28.9726C22.349 28.8055 21.3898 28.3153 20.6461 27.5717C19.9025 26.828 19.4122 25.8688 19.2451 24.8305C19.0781 23.7922 19.2426 22.7276 19.7155 21.7882C20.1883 20.8488 20.9453 20.0824 21.8788 19.598C22.8123 19.1136 23.8748 18.936 24.9151 19.0902C25.9762 19.2476 26.9586 19.742 27.7172 20.5006C28.4757 21.2592 28.9702 22.2416 29.1276 23.3027Z" stroke="#252F66" stroke-width="2" stroke-linecap="round" stroke-linejoin="round"/>
</svg>
