<svg height="512" viewBox="0 0 56 56" width="512" xmlns="http://www.w3.org/2000/svg"><g id="Page-1" fill="none" fill-rule="evenodd"><g id="020---Library" fill="rgb(0,0,0)" fill-rule="nonzero"><path id="Shape" d="m44 46v-3h6v3zm-14-5h-4v-9h4zm-5 2h6v3h-6zm24-2h-4v-9h4zm-32-23h9c.5522847 0 1 .4477153 1 1v1h-10zm12 1c0-.5522847.4477153-1 1-1h9v2h-10zm1-19h9v16h-9c-.3414397.0033144-.679743.0655622-1 .184v-15.184c0-.55228475.4477153-1 1-1zm-4 0c.5522847 0 1 .44771525 1 1v15.184c-.320257-.1184378-.6585603-.1806856-1-.184h-9v-16zm-13 3c0-.55228475.4477153-1 1-1h1v18c0 1.1045695.8954305 2 2 2h22c1.1045695 0 2-.8954305 2-2v-18h1c.5522847 0 1 .44771525 1 1v20c0 .5522847-.4477153 1-1 1h-11.15c-.8483595-.0188018-1.613623.5072162-1.9 1.306-.1304324.4155885-.514867.6989455-.95044.7005452s-.8220786-.278926-.95556-.6935452c-.2835502-.7992232-1.046098-1.3278532-1.894-1.313h-11.15c-.5522847 0-1-.4477153-1-1zm-1.994 20.064c.0347675 1.6294775 1.3641542 2.9331112 2.994 2.936l11.153-.046c.4116103 1.2170961 1.5488671 2.03999 2.8336389 2.0503583s2.4351614-.7940638 2.8663611-2.0043583h11.147c1.6283162-.0033934 2.9566377-1.3050863 2.993-2.933l7.842 6.033c.1721722.1291291.2423987.3539428.1743416.5581139-.068057.2041711-.2591264.3418861-.4743416.3418861l-49.055-.026c-.2152152 0-.40628463-.137715-.47434165-.3418861s.00216949-.4289848.17434165-.5581139zm-.006 8.936v9h-4v-9zm-5 11h6v3h-6zm-3 5h50c.5522847 0 1 .4477153 1 1v2h-52v-2c0-.5522847.44771525-1 1-1zm-3 8v-2c0-.5522847.44771525-1 1-1h54c.5522847 0 1 .4477153 1 1v2z"/></g></g></svg>