<svg width="48" height="48" viewBox="0 0 48 48" fill="none" xmlns="http://www.w3.org/2000/svg">
<rect width="48" height="48" rx="24" fill="white"/>
<path d="M29.1816 19.0361C31.3034 19.0361 33.3382 19.8142 34.8385 21.199C36.3388 22.5839 37.1816 24.4622 37.1816 26.4207V35.0361H31.8483V26.4207C31.8483 25.7679 31.5674 25.1418 31.0673 24.6802C30.5672 24.2186 29.8889 23.9592 29.1816 23.9592C28.4744 23.9592 27.7961 24.2186 27.296 24.6802C26.7959 25.1418 26.515 25.7679 26.515 26.4207V35.0361H21.1816V26.4207C21.1816 24.4622 22.0245 22.5839 23.5248 21.199C25.0251 19.8142 27.0599 19.0361 29.1816 19.0361V19.0361Z" stroke="#252F66" stroke-width="2" stroke-linecap="round" stroke-linejoin="round"/>
<path d="M17.1816 19.0361H11.1816V35.0361H17.1816V19.0361Z" stroke="#252F66" stroke-width="2" stroke-linecap="round" stroke-linejoin="round"/>
<path d="M14 15C15.6569 15 17 13.6569 17 12C17 10.3431 15.6569 9 14 9C12.3431 9 11 10.3431 11 12C11 13.6569 12.3431 15 14 15Z" stroke="#252F66" stroke-width="2" stroke-linecap="round" stroke-linejoin="round"/>
</svg>
