<svg width="484" height="410" viewBox="0 0 484 410" fill="none" xmlns="http://www.w3.org/2000/svg">
<g clip-path="url(#clip0)">
<g style="mix-blend-mode:overlay">
<circle cx="5" cy="5" r="5" fill="#665625"/>
</g>
<g style="mix-blend-mode:overlay">
<circle cx="5" cy="305" r="5" fill="#665625"/>
</g>
<g style="mix-blend-mode:overlay">
<circle cx="5" cy="55" r="5" fill="#665625"/>
</g>
<g style="mix-blend-mode:overlay">
<circle cx="5" cy="355" r="5" fill="#665625"/>
</g>
<g style="mix-blend-mode:overlay">
<circle cx="5" cy="105" r="5" fill="#665625"/>
</g>
<g style="mix-blend-mode:overlay">
<circle cx="5" cy="405" r="5" fill="#665625"/>
</g>
<g style="mix-blend-mode:overlay">
<circle cx="5" cy="155" r="5" fill="#665625"/>
</g>
<g style="mix-blend-mode:overlay">
<circle cx="5" cy="205" r="5" fill="#665625"/>
</g>
<g style="mix-blend-mode:overlay">
<circle cx="5" cy="255" r="5" fill="#665625"/>
</g>
<g style="mix-blend-mode:overlay">
<circle cx="54" cy="5" r="5" fill="#665625"/>
</g>
<g style="mix-blend-mode:overlay">
<circle cx="54" cy="305" r="5" fill="#665625"/>
</g>
<g style="mix-blend-mode:overlay">
<circle cx="54" cy="55" r="5" fill="#665625"/>
</g>
<g style="mix-blend-mode:overlay">
<circle cx="54" cy="355" r="5" fill="#665625"/>
</g>
<g style="mix-blend-mode:overlay">
<circle cx="54" cy="105" r="5" fill="#665625"/>
</g>
<g style="mix-blend-mode:overlay">
<circle cx="54" cy="405" r="5" fill="#665625"/>
</g>
<g style="mix-blend-mode:overlay">
<circle cx="54" cy="155" r="5" fill="#665625"/>
</g>
<g style="mix-blend-mode:overlay">
<circle cx="54" cy="205" r="5" fill="#665625"/>
</g>
<g style="mix-blend-mode:overlay">
<circle cx="54" cy="255" r="5" fill="#665625"/>
</g>
<g style="mix-blend-mode:overlay">
<circle cx="103" cy="5" r="5" fill="#665625"/>
</g>
<g style="mix-blend-mode:overlay">
<circle cx="103" cy="305" r="5" fill="#665625"/>
</g>
<g style="mix-blend-mode:overlay">
<circle cx="103" cy="55" r="5" fill="#665625"/>
</g>
<g style="mix-blend-mode:overlay">
<circle cx="103" cy="355" r="5" fill="#665625"/>
</g>
<g style="mix-blend-mode:overlay">
<circle cx="103" cy="105" r="5" fill="#665625"/>
</g>
<g style="mix-blend-mode:overlay">
<circle cx="103" cy="405" r="5" fill="#665625"/>
</g>
<g style="mix-blend-mode:overlay">
<circle cx="103" cy="155" r="5" fill="#665625"/>
</g>
<g style="mix-blend-mode:overlay">
<circle cx="103" cy="205" r="5" fill="#665625"/>
</g>
<g style="mix-blend-mode:overlay">
<circle cx="103" cy="255" r="5" fill="#665625"/>
</g>
<g style="mix-blend-mode:overlay">
<circle cx="152" cy="5" r="5" fill="#665625"/>
</g>
<g style="mix-blend-mode:overlay">
<circle cx="152" cy="305" r="5" fill="#665625"/>
</g>
<g style="mix-blend-mode:overlay">
<circle cx="152" cy="55" r="5" fill="#665625"/>
</g>
<g style="mix-blend-mode:overlay">
<circle cx="152" cy="355" r="5" fill="#665625"/>
</g>
<g style="mix-blend-mode:overlay">
<circle cx="152" cy="105" r="5" fill="#665625"/>
</g>
<g style="mix-blend-mode:overlay">
<circle cx="152" cy="405" r="5" fill="#665625"/>
</g>
<g style="mix-blend-mode:overlay">
<circle cx="152" cy="155" r="5" fill="#665625"/>
</g>
<g style="mix-blend-mode:overlay">
<circle cx="152" cy="205" r="5" fill="#665625"/>
</g>
<g style="mix-blend-mode:overlay">
<circle cx="152" cy="255" r="5" fill="#665625"/>
</g>
<g style="mix-blend-mode:overlay">
<circle cx="201" cy="5" r="5" fill="#665625"/>
</g>
<g style="mix-blend-mode:overlay">
<circle cx="201" cy="305" r="5" fill="#665625"/>
</g>
<g style="mix-blend-mode:overlay">
<circle cx="201" cy="55" r="5" fill="#665625"/>
</g>
<g style="mix-blend-mode:overlay">
<circle cx="201" cy="355" r="5" fill="#665625"/>
</g>
<g style="mix-blend-mode:overlay">
<circle cx="201" cy="105" r="5" fill="#665625"/>
</g>
<g style="mix-blend-mode:overlay">
<circle cx="201" cy="405" r="5" fill="#665625"/>
</g>
<g style="mix-blend-mode:overlay">
<circle cx="201" cy="155" r="5" fill="#665625"/>
</g>
<g style="mix-blend-mode:overlay">
<circle cx="201" cy="205" r="5" fill="#665625"/>
</g>
<g style="mix-blend-mode:overlay">
<circle cx="201" cy="255" r="5" fill="#665625"/>
</g>
<g style="mix-blend-mode:overlay">
<circle cx="250" cy="5" r="5" fill="#665625"/>
</g>
<g style="mix-blend-mode:overlay">
<circle cx="250" cy="305" r="5" fill="#665625"/>
</g>
<g style="mix-blend-mode:overlay">
<circle cx="299" cy="5" r="5" fill="#665625"/>
</g>
<g style="mix-blend-mode:overlay">
<circle cx="299" cy="305" r="5" fill="#665625"/>
</g>
<g style="mix-blend-mode:overlay">
<circle cx="348" cy="5" r="5" fill="#665625"/>
</g>
<g style="mix-blend-mode:overlay">
<circle cx="348" cy="305" r="5" fill="#665625"/>
</g>
<g style="mix-blend-mode:overlay">
<circle cx="397" cy="5" r="5" fill="#665625"/>
</g>
<g style="mix-blend-mode:overlay">
<circle cx="397" cy="305" r="5" fill="#665625"/>
</g>
<g style="mix-blend-mode:overlay">
<circle cx="446" cy="5" r="5" fill="#665625"/>
</g>
<g style="mix-blend-mode:overlay">
<circle cx="446" cy="305" r="5" fill="#665625"/>
</g>
<g style="mix-blend-mode:overlay">
<circle cx="250" cy="55" r="5" fill="#665625"/>
</g>
<g style="mix-blend-mode:overlay">
<circle cx="250" cy="355" r="5" fill="#665625"/>
</g>
<g style="mix-blend-mode:overlay">
<circle cx="299" cy="55" r="5" fill="#665625"/>
</g>
<g style="mix-blend-mode:overlay">
<circle cx="299" cy="355" r="5" fill="#665625"/>
</g>
<g style="mix-blend-mode:overlay">
<circle cx="348" cy="55" r="5" fill="#665625"/>
</g>
<g style="mix-blend-mode:overlay">
<circle cx="348" cy="355" r="5" fill="#665625"/>
</g>
<g style="mix-blend-mode:overlay">
<circle cx="397" cy="55" r="5" fill="#665625"/>
</g>
<g style="mix-blend-mode:overlay">
<circle cx="397" cy="355" r="5" fill="#665625"/>
</g>
<g style="mix-blend-mode:overlay">
<circle cx="446" cy="55" r="5" fill="#665625"/>
</g>
<g style="mix-blend-mode:overlay">
<circle cx="446" cy="355" r="5" fill="#665625"/>
</g>
<g style="mix-blend-mode:overlay">
<circle cx="250" cy="105" r="5" fill="#665625"/>
</g>
<g style="mix-blend-mode:overlay">
<circle cx="250" cy="405" r="5" fill="#665625"/>
</g>
<g style="mix-blend-mode:overlay">
<circle cx="299" cy="105" r="5" fill="#665625"/>
</g>
<g style="mix-blend-mode:overlay">
<circle cx="299" cy="405" r="5" fill="#665625"/>
</g>
<g style="mix-blend-mode:overlay">
<circle cx="348" cy="105" r="5" fill="#665625"/>
</g>
<g style="mix-blend-mode:overlay">
<circle cx="348" cy="405" r="5" fill="#665625"/>
</g>
<g style="mix-blend-mode:overlay">
<circle cx="397" cy="105" r="5" fill="#665625"/>
</g>
<g style="mix-blend-mode:overlay">
<circle cx="397" cy="405" r="5" fill="#665625"/>
</g>
<g style="mix-blend-mode:overlay">
<circle cx="446" cy="105" r="5" fill="#665625"/>
</g>
<g style="mix-blend-mode:overlay">
<circle cx="446" cy="405" r="5" fill="#665625"/>
</g>
<g style="mix-blend-mode:overlay">
<circle cx="250" cy="155" r="5" fill="#665625"/>
</g>
<g style="mix-blend-mode:overlay">
<circle cx="299" cy="155" r="5" fill="#665625"/>
</g>
<g style="mix-blend-mode:overlay">
<circle cx="348" cy="155" r="5" fill="#665625"/>
</g>
<g style="mix-blend-mode:overlay">
<circle cx="397" cy="155" r="5" fill="#665625"/>
</g>
<g style="mix-blend-mode:overlay">
<circle cx="446" cy="155" r="5" fill="#665625"/>
</g>
<g style="mix-blend-mode:overlay">
<circle cx="250" cy="205" r="5" fill="#665625"/>
</g>
<g style="mix-blend-mode:overlay">
<circle cx="299" cy="205" r="5" fill="#665625"/>
</g>
<g style="mix-blend-mode:overlay">
<circle cx="348" cy="205" r="5" fill="#665625"/>
</g>
<g style="mix-blend-mode:overlay">
<circle cx="397" cy="205" r="5" fill="#665625"/>
</g>
<g style="mix-blend-mode:overlay">
<circle cx="446" cy="205" r="5" fill="#665625"/>
</g>
<g style="mix-blend-mode:overlay">
<circle cx="250" cy="255" r="5" fill="#665625"/>
</g>
<g style="mix-blend-mode:overlay">
<circle cx="299" cy="255" r="5" fill="#665625"/>
</g>
<g style="mix-blend-mode:overlay">
<circle cx="348" cy="255" r="5" fill="#665625"/>
</g>
<g style="mix-blend-mode:overlay">
<circle cx="397" cy="255" r="5" fill="#665625"/>
</g>
<g style="mix-blend-mode:overlay">
<circle cx="446" cy="255" r="5" fill="#665625"/>
</g>
</g>
<defs>
<clipPath id="clip0">
<rect width="484" height="410" fill="white"/>
</clipPath>
</defs>
</svg>
