<svg width="48" height="48" viewBox="0 0 48 48" fill="none" xmlns="http://www.w3.org/2000/svg">
<rect width="48" height="48" rx="24" fill="white"/>
<path d="M37.1816 13.0485C36.0499 13.8766 34.7969 14.5101 33.4707 14.9243C32.759 14.0753 31.813 13.4735 30.7609 13.2004C29.7087 12.9273 28.601 12.996 27.5877 13.3972C26.5744 13.7985 25.7043 14.5129 25.0952 15.4438C24.486 16.3748 24.1671 17.4774 24.1816 18.6025V19.8286C22.1048 19.8844 20.0468 19.4066 18.191 18.4375C16.3352 17.4685 14.7393 16.0384 13.5453 14.2745C13.5453 14.2745 8.818 25.309 19.4544 30.2133C17.0204 31.9273 14.121 32.7867 11.1816 32.6654C21.818 38.7957 34.818 32.6654 34.818 18.5657C34.8169 18.2242 34.7853 17.8835 34.7235 17.5481C35.9296 16.3141 36.7808 14.756 37.1816 13.0485V13.0485Z" stroke="#252F66" stroke-width="2" stroke-linecap="round" stroke-linejoin="round"/>
</svg>
