<svg width="18" height="19" viewBox="0 0 18 19" fill="none" xmlns="http://www.w3.org/2000/svg">
<path d="M15.75 7.99984C15.9489 7.99984 16.1397 7.92082 16.2803 7.78017C16.421 7.63952 16.5 7.44875 16.5 7.24984V4.99984C16.5 4.84247 16.4504 4.68909 16.3584 4.56147C16.2663 4.43385 16.1363 4.33846 15.987 4.28884L9.237 2.03884C9.08314 1.98771 8.91686 1.98771 8.763 2.03884L2.013 4.28884C1.86366 4.33846 1.73373 4.43385 1.64165 4.56147C1.54956 4.68909 1.50001 4.84247 1.5 4.99984V7.24984C1.5 7.44875 1.57902 7.63952 1.71967 7.78017C1.86032 7.92082 2.05109 7.99984 2.25 7.99984H3V13.3878C2.56252 13.5419 2.18346 13.8277 1.91488 14.2058C1.64631 14.584 1.50138 15.036 1.5 15.4998V16.9998C1.5 17.1988 1.57902 17.3895 1.71967 17.5302C1.86032 17.6708 2.05109 17.7498 2.25 17.7498H15.75C15.9489 17.7498 16.1397 17.6708 16.2803 17.5302C16.421 17.3895 16.5 17.1988 16.5 16.9998V15.4998C16.4986 15.036 16.3537 14.584 16.0851 14.2058C15.8165 13.8277 15.4375 13.5419 15 13.3878V7.99984H15.75ZM15 16.2498H3V15.4998C3.0002 15.301 3.07928 15.1103 3.21989 14.9697C3.3605 14.8291 3.55115 14.75 3.75 14.7498H14.25C14.4489 14.75 14.6395 14.8291 14.7801 14.9697C14.9207 15.1103 14.9998 15.301 15 15.4998V16.2498ZM4.5 13.2498V7.99984H6V13.2498H4.5ZM7.5 13.2498V7.99984H10.5V13.2498H7.5ZM12 13.2498V7.99984H13.5V13.2498H12ZM3 6.49984V5.53984L9 3.54034L15 5.54059V6.49984H3Z" fill="#252F66"/>
</svg>
